<?xml version="1.0" encoding="utf-8"?>
<!-- Generator: Adobe Illustrator 25.0.0, SVG Export Plug-In . SVG Version: 6.00 Build 0)  -->
<svg version="1.1" id="Layer_1" xmlns="http://www.w3.org/2000/svg" xmlns:xlink="http://www.w3.org/1999/xlink" x="0px" y="0px"
	 viewBox="0 0 1442 445" style="enable-background:new 0 0 1442 445;" xml:space="preserve">
<style type="text/css">
	.st0{fill-opacity:0;}
	.st1{opacity:0.12;fill:#007BFF;enable-background:new    ;}
	.st2{fill:none;stroke:#007BFF;stroke-miterlimit:10;}
	.st3{enable-background:new    ;}
</style>
<rect x="1" y="1" class="st0" width="1440.3" height="443.2"/>
<rect x="1" y="1" class="st0" width="1440.3" height="443.2"/>
<path class="st1" d="M297.8,207.2h-264c-9.2,0-16.7-7.5-16.7-16.7V35.9c0-9.2,7.5-16.7,16.7-16.7h264c9.2,0,16.7,7.5,16.7,16.7
	v154.6C314.5,199.7,307,207.2,297.8,207.2z"/>
<path class="st1" d="M297.8,427.4h-264c-9.2,0-16.7-7.5-16.7-16.7V256.1c0-9.2,7.5-16.7,16.7-16.7h264c9.2,0,16.7,7.5,16.7,16.7
	v154.6C314.5,419.9,307,427.4,297.8,427.4z"/>
<path class="st2" d="M333.4,222.6H1v221.6h332.4V222.6z"/>
<path class="st2" d="M555,222.6H333.4v221.6H555V222.6z"/>
<path class="st2" d="M776.5,222.6H554.9v221.6h221.6V222.6z"/>
<path class="st2" d="M998.1,222.6H776.5v221.6h221.6V222.6z"/>
<path class="st2" d="M1219.7,222.6H998.1v221.6h221.6V222.6z"/>
<path class="st2" d="M333.4,1H1v221.6h332.4V1z"/>
<path class="st2" d="M555,1H333.4v221.6H555V1z"/>
<path class="st2" d="M776.5,1H554.9v221.6h221.6V1z"/>
<path class="st2" d="M998.1,1H776.5v221.6h221.6V1z"/>
<path class="st2" d="M1219.7,1H998.1v221.6h221.6V1z"/>
<path class="st2" d="M1441.3,222.6h-221.6v221.6h221.6V222.6z"/>
<path class="st2" d="M1441.3,1h-221.6v221.6h221.6V1z"/>
<path d="M394.2,352h22v-4.2h-8.3v-33.6H402l-7.9,5.3v5l7.9-5.3h1.1v28.6h-9v4.2H394.2z M435.1,313.4c-8,0-13.9,6-13.9,19.7
	s5.9,19.6,13.9,19.6s13.9-6,13.9-19.6S443.1,313.4,435.1,313.4z M435.1,348.5c-6.3,0-9.1-6-9.1-15.4s2.9-15.4,9.1-15.4
	c6.3,0,9.2,6,9.2,15.4C444.2,342.4,441.4,348.5,435.1,348.5z M459.8,352v-6.3h-5.6v6.3H459.8z M488.2,331.5c1.9-0.9,4.8-3.7,4.8-7.9
	c0-6-5.2-10.1-12.5-10.1s-12.5,4.1-12.5,10.1c0,4.3,2.8,7.1,4.8,7.9v1.2c-2.5,0.9-5.9,4-5.9,9c0,6.3,5.3,11,13.7,11
	c8.3,0,13.7-4.8,13.7-11c0-5-3.4-8.2-5.9-9v-1.2H488.2z M480.4,317.5c4.3,0,7.9,2.2,7.9,6.2c0,4.1-3.6,6.3-7.9,6.3s-7.9-2.2-7.9-6.3
	C472.5,319.7,476.1,317.5,480.4,317.5z M480.4,348.5c-5.6,0-9-2.9-9-7.2c0-4.5,3.4-7.1,9-7.1s9,2.6,9,7.1
	C489.4,345.6,486,348.5,480.4,348.5z"/>
<path d="M617.2,352h22v-4.2h-8.3v-33.6H625l-7.9,5.3v5l7.9-5.3h1.1v28.6h-9v4.2H617.2z M666.6,338.9v-24.7H660l-16.7,23.5v5.4H662
	v8.9h4.6v-8.9h5.2v-4.2L666.6,338.9L666.6,338.9z M648.3,338.9v-1.2l12.6-18.2h1.2v19.4L648.3,338.9L648.3,338.9z M683.3,352v-6.3
	h-5.6v6.3H683.3z M691.7,314.2v4.1h16.5v1.2l-9.2,8v5c0.9-0.2,1.9-0.3,3.3-0.3c5.6,0,8.5,3.1,8.5,8c0,5.2-3.4,8.3-8.6,8.3
	c-4.5,0-8-2.8-8.5-7.1H689c0.4,6.4,5.6,11.3,13.2,11.3c7.7,0,13.3-4.6,13.3-12.5c0-7.3-4.8-11.3-11.2-11.5v-1.1l9.4-8.1v-5.3H691.7z
	"/>
<path d="M1062.2,352h22v-4.2h-8.3v-33.6h-5.9l-7.9,5.3v5l7.9-5.3h1.1v28.6h-9v4.2H1062.2z M1093.8,324.6c0.5-4.8,3.5-7,7.7-7
	c4.6,0,7.6,2.5,7.6,7.3c0,4.5-3.3,7.6-5.9,9.9c-2,1.8-5.6,4.9-8.6,7.3l-5.6,4.5v5.3h26v-4.2h-19v-1.2l9.5-8
	c4.5-3.7,8.4-8.5,8.4-13.7c0-7.6-5.2-11.5-12.3-11.5c-6.7,0-12.2,3.6-12.6,11.2h4.8V324.6z M1127.4,352v-6.3h-5.6v6.3H1127.4z
	 M1134.8,352h22v-4.2h-8.3v-33.6h-5.9l-7.9,5.3v5l7.9-5.3h1.1v28.6h-9v4.2H1134.8z"/>
<path d="M1308.4,338.8c4.5,0,7.6-2.1,8.8-3.7h1.2c-0.3,8.3-3.7,13.4-9.8,13.4c-3.7,0-5.7-1.6-6.6-4.8h-4.7c0.9,5.2,4.9,9,11.3,9
	c9.9,0,14.4-9.2,14.4-20.7c0-13.6-5.8-18.6-13.9-18.6c-8,0-12.9,5.8-12.9,13S1301.5,338.8,1308.4,338.8z M1309.2,317.7
	c4.6,0,8.3,3.1,8.3,8.6c0,5.4-3.7,8.3-8.2,8.3c-4.6,0-8.3-2.8-8.3-8.4S1304.6,317.7,1309.2,317.7z M1333.8,352v-6.3h-5.6v6.3H1333.8
	z M1363.7,319.5v-5.3h-24.1v4.1h19.2v1.2l-16.4,32.5h5L1363.7,319.5z"/>
<path d="M88.2,107.4V146h4.9v-38.6H88.2z M127,146v-17.3c0-6.5-3.7-10.6-10.4-10.6c-3.7,0-6.7,1.5-8.2,3.6h-1.2v-2.9h-4.4V146h4.6
	v-14.7c0-4.8,3.2-9.1,8.1-9.1c4.6,0,6.9,2.5,6.9,7.5V146H127z M155.1,106.7v15h-1.2c-1.5-1.9-4-3.6-8.3-3.6
	c-7.5,0-11.9,6.1-11.9,14.3c0,8,4.4,14.3,11.9,14.3c4.3,0,7-1.7,8.5-3.6h1.2v2.9h4.4v-39.3L155.1,106.7L155.1,106.7z M146.6,142.7
	c-5.5,0-8.4-4.3-8.4-10.3c0-6,2.9-10.3,8.4-10.3c6,0,8.5,5,8.5,10.3C155.1,137.7,152.7,142.7,146.6,142.7z M192.2,130.8
	c-0.2-6.7-4.1-12.7-12.2-12.7c-8.3,0-13.1,5.7-13.1,14s4.8,14.6,13.2,14.6c6.8,0,10.7-3.6,11.6-8.2h-4.6c-0.8,2.6-3.1,4.2-6.9,4.2
	c-5.6,0-8.5-3.9-8.7-10.4h20.7V130.8z M179.9,122.1c4.6,0,7.2,3,7.5,6.4h-15.7C172.3,125,175,122.1,179.9,122.1z M216.7,146h5.2
	l-8.4-14.1l7.7-13.1h-4.8l-6.4,10.8h-1.9l-6.3-10.8H197l7.6,13.3l-8.5,13.9h5l6.9-11.4h1.9L216.7,146z"/>
<path d="M68.8,344.6v-13.3h17.7v-4.4H68.8V315h22v-4.4H63.9V349h27.7v-4.4H68.8z M98.7,309.7V349h4.6v-39.3H98.7z M135.7,333.8
	c-0.2-6.7-4.1-12.7-12.1-12.7c-8.3,0-13.1,5.7-13.1,14s4.8,14.6,13.2,14.6c6.8,0,10.7-3.6,11.6-8.2h-4.6c-0.8,2.6-3.1,4.2-6.9,4.2
	c-5.6,0-8.5-3.9-8.7-10.4h20.7v-1.5H135.7z M123.4,325.1c4.6,0,7.2,3,7.5,6.4h-15.7C115.8,328,118.5,325.1,123.4,325.1z
	 M171.4,321.1c-3.4,0-6,1.2-7.7,3.6h-1.2c-1.5-2.4-3.9-3.6-7.2-3.6c-3.5,0-5.6,1.2-6.9,3.3h-1.2v-2.6h-4.4V349h4.6v-15.1
	c0-4.9,2.2-8.7,6.7-8.7c3.4,0,5.2,2.3,5.2,6.8v17h4.6v-15.9c0-4.6,2.4-7.9,6.6-7.9c3.5,0,5.2,2.2,5.2,6.7V349h4.6v-17.6
	C180.4,325.1,177.7,321.1,171.4,321.1z M212.4,333.8c-0.2-6.7-4.1-12.7-12.2-12.7c-8.3,0-13.1,5.7-13.1,14s4.8,14.6,13.2,14.6
	c6.8,0,10.7-3.6,11.6-8.2h-4.6c-0.8,2.6-3.1,4.2-6.9,4.2c-5.6,0-8.5-3.9-8.7-10.4h20.7V333.8z M200.1,325.1c4.6,0,7.2,3,7.5,6.4
	h-15.7C192.5,328,195.2,325.1,200.1,325.1z M243.7,349v-17.3c0-6.5-3.7-10.6-10.4-10.6c-3.7,0-6.7,1.5-8.2,3.6h-1.2v-2.9h-4.4V349
	h4.6v-14.7c0-4.8,3.2-9.1,8.1-9.1c4.6,0,6.9,2.5,6.9,7.5V349H243.7z M258.4,321.8v-8.2h-4.6v8.2h-4.7v4h4.7v15.6
	c0,5.8,3.5,7.6,9.3,7.6h2.1v-4.1h-2c-3.7,0-4.9-1.4-4.9-4.2v-15h6.9v-4h-6.8V321.8z"/>
<path d="M450.8,107.4c-8,0-13.9,6-13.9,19.7c0,13.7,5.9,19.6,13.9,19.6s13.9-6,13.9-19.6S458.8,107.4,450.8,107.4z M450.8,142.5
	c-6.3,0-9.1-6-9.1-15.4s2.9-15.4,9.1-15.4c6.3,0,9.2,6,9.2,15.4C460,136.4,457.2,142.5,450.8,142.5z"/>
<path d="M640.2,146h22v-4.2h-8.3v-33.6H648l-7.9,5.3v5l7.9-5.3h1.1v28.6h-9v4.2H640.2z"/>
<path d="M870.6,118.6c0.5-4.8,3.5-7,7.7-7c4.6,0,7.6,2.5,7.6,7.3c0,4.5-3.3,7.6-5.9,9.9c-2,1.8-5.6,4.9-8.6,7.3l-5.6,4.5v5.3h26
	v-4.2h-19.1v-1.2l9.5-8c4.5-3.7,8.4-8.5,8.4-13.7c0-7.6-5.2-11.5-12.3-11.5c-6.7,0-12.1,3.6-12.6,11.2L870.6,118.6L870.6,118.6z"/>
<path d="M1091.3,108.2v4.1h16.5v1.2l-9.2,8v5c0.9-0.2,1.9-0.3,3.3-0.3c5.6,0,8.5,3.1,8.5,8c0,5.2-3.4,8.3-8.6,8.3
	c-4.5,0-8.1-2.8-8.5-7.1h-4.8c0.4,6.4,5.6,11.3,13.2,11.3c7.7,0,13.3-4.6,13.3-12.5c0-7.3-4.8-11.3-11.2-11.5v-1.1l9.4-8.1v-5.3
	L1091.3,108.2L1091.3,108.2z"/>
<path d="M1336.4,132.9v-24.7h-6.6l-16.7,23.5v5.4h18.7v8.9h4.6v-8.9h5.2v-4.2H1336.4z M1318.1,132.9v-1.2l12.6-18.2h1.2v19.4H1318.1
	z"/>
<g>
	<g class="st3">
		<path d="M854.4,346.7l3.9-4.6c1.2,1.3,2.5,2.2,4,2.9c1.5,0.6,3.2,1,5,1c2.2,0,4.1-0.5,5.6-1.5c1.5-1,2.2-2.5,2.2-4.5
			c0-1.2-0.3-2.3-1-3.2c-0.7-0.9-1.7-1.6-2.9-2.1s-2.7-0.7-4.4-0.7h-4.7V330l2.9-1.3h3.4c2.5,0,4.8,0.4,6.8,1.3s3.6,2.1,4.7,3.7
			c1.1,1.6,1.7,3.7,1.7,6.2c0,2.6-0.6,4.8-1.9,6.5s-3,3.1-5.1,4.1c-2.1,0.9-4.5,1.4-7,1.4c-2.7,0-5.1-0.4-7.3-1.3
			C858.1,349.7,856.1,348.4,854.4,346.7z M855.6,319.5v-5.9h24.7v4.4l-2.7,1.5H855.6z M861.9,330l15.5-16.4l2.9,4.4l-11.7,12H861.9z
			"/>
		<path d="M887.6,347.9c0-1.2,0.4-2.1,1.1-2.9c0.8-0.7,1.7-1.1,2.8-1.1c1.2,0,2.2,0.4,2.9,1.1c0.7,0.7,1.1,1.7,1.1,2.9
			c0,1.1-0.4,2.1-1.1,2.8c-0.7,0.8-1.7,1.1-2.9,1.1c-1.1,0-2.1-0.4-2.8-1.1C888,349.9,887.6,349,887.6,347.9z"/>
		<path d="M901.1,319.7v-6.1h25.4v4.4l-2.7,1.7H901.1z M906.5,351.2l15.6-37.7l4.5,4.4l-12.9,33.3H906.5z"/>
	</g>
</g>
</svg>
